
<svg xmlns="http://www.w3.org/2000/svg" xmlns:xlink="http://www.w3.org/1999/xlink" width="500" zoomAndPan="magnify" viewBox="0 0 375 374.999991" height="500" preserveAspectRatio="xMidYMid meet" version="1.0"><defs><g/><clipPath id="00934f261a"><path d="M 51.078125 137.894531 L 163.578125 137.894531 L 163.578125 250.394531 L 51.078125 250.394531 Z M 51.078125 137.894531 " clip-rule="nonzero"/></clipPath><clipPath id="d243c3e7a0"><path d="M 107.328125 137.894531 C 76.261719 137.894531 51.078125 163.078125 51.078125 194.144531 C 51.078125 225.207031 76.261719 250.394531 107.328125 250.394531 C 138.394531 250.394531 163.578125 225.207031 163.578125 194.144531 C 163.578125 163.078125 138.394531 137.894531 107.328125 137.894531 Z M 107.328125 137.894531 " clip-rule="nonzero"/></clipPath><clipPath id="936af7f705"><path d="M 146 156.957031 L 193.269531 156.957031 L 193.269531 227 L 146 227 Z M 146 156.957031 " clip-rule="nonzero"/></clipPath><clipPath id="80081ac9ea"><path d="M 277.246094 226.320312 L 277.246094 183.605469 C 277.347656 182.273438 277.175781 180.980469 276.734375 179.722656 C 276.296875 178.464844 275.625 177.34375 274.71875 176.363281 C 273.707031 175.425781 272.554688 174.71875 271.261719 174.242188 C 269.964844 173.769531 268.625 173.566406 267.246094 173.632812 C 266.992188 173.625 266.734375 173.636719 266.480469 173.660156 L 266.480469 216.390625 C 266.378906 217.71875 266.550781 219.007812 266.988281 220.261719 C 267.425781 221.519531 268.097656 222.636719 269.003906 223.613281 C 270.011719 224.546875 271.160156 225.253906 272.449219 225.726562 C 273.742188 226.199219 275.074219 226.40625 276.449219 226.34375 C 276.695312 226.34375 276.984375 226.34375 277.242188 226.320312 Z M 278.226562 163.285156 C 278.226562 162.867188 278.183594 162.457031 278.101562 162.046875 C 278.019531 161.640625 277.898438 161.242188 277.738281 160.859375 C 277.574219 160.476562 277.378906 160.109375 277.144531 159.765625 C 276.914062 159.417969 276.648438 159.097656 276.351562 158.804688 C 276.058594 158.511719 275.734375 158.25 275.386719 158.019531 C 275.039062 157.789062 274.671875 157.59375 274.285156 157.433594 C 273.902344 157.277344 273.503906 157.15625 273.09375 157.078125 C 272.683594 156.996094 272.269531 156.957031 271.851562 156.957031 C 271.433594 156.957031 271.019531 157 270.613281 157.082031 C 270.203125 157.164062 269.804688 157.285156 269.417969 157.445312 C 269.035156 157.605469 268.667969 157.800781 268.320312 158.03125 C 267.972656 158.265625 267.652344 158.527344 267.359375 158.820312 C 267.0625 159.117188 266.800781 159.4375 266.570312 159.785156 C 266.335938 160.128906 266.140625 160.496094 265.984375 160.878906 C 265.824219 161.265625 265.703125 161.664062 265.621094 162.070312 C 265.539062 162.480469 265.5 162.890625 265.5 163.308594 C 265.5 163.722656 265.542969 164.136719 265.625 164.542969 C 265.707031 164.953125 265.824219 165.347656 265.984375 165.734375 C 266.144531 166.117188 266.34375 166.484375 266.574219 166.832031 C 266.804688 167.175781 267.070312 167.496094 267.363281 167.792969 C 267.660156 168.085938 267.980469 168.347656 268.328125 168.578125 C 268.675781 168.8125 269.042969 169.007812 269.429688 169.164062 C 269.8125 169.324219 270.210938 169.445312 270.621094 169.527344 C 271.03125 169.609375 271.445312 169.648438 271.863281 169.648438 C 272.28125 169.648438 272.695312 169.609375 273.105469 169.527344 C 273.515625 169.445312 273.914062 169.324219 274.300781 169.164062 C 274.691406 169.007812 275.058594 168.808594 275.40625 168.578125 C 275.753906 168.34375 276.074219 168.082031 276.371094 167.785156 C 276.667969 167.488281 276.929688 167.167969 277.164062 166.820312 C 277.394531 166.472656 277.589844 166.105469 277.75 165.71875 C 277.910156 165.332031 278.027344 164.933594 278.109375 164.527344 C 278.191406 164.117188 278.230469 163.703125 278.226562 163.285156 Z M 245.964844 205.621094 L 245.964844 216.390625 C 245.867188 217.71875 246.035156 219.007812 246.476562 220.265625 C 246.917969 221.519531 247.589844 222.636719 248.5 223.613281 C 249.507812 224.546875 250.660156 225.253906 251.953125 225.726562 C 253.25 226.199219 254.582031 226.40625 255.960938 226.34375 C 256.210938 226.34375 256.492188 226.34375 256.746094 226.320312 L 256.746094 203.371094 C 256.746094 193.492188 254.042969 186.847656 249.238281 181.675781 C 244.285156 176.363281 236.882812 173.292969 228.308594 173.292969 C 211.871094 173.292969 200.46875 185.300781 200.46875 200.941406 C 200.46875 216.308594 211.015625 226.566406 224.703125 226.566406 C 235.253906 226.566406 241.59375 220.308594 241.59375 212.972656 C 241.570312 211.457031 241.324219 209.976562 240.855469 208.53125 C 240.390625 207.089844 239.722656 205.746094 238.851562 204.503906 C 237.332031 212.390625 232.960938 216.730469 225.914062 216.730469 C 218.386719 216.730469 211.769531 211.042969 211.769531 200.671875 C 211.769531 190.476562 218.40625 183.503906 228.339844 183.503906 C 230.574219 183.445312 232.734375 183.824219 234.816406 184.636719 C 236.898438 185.453125 238.738281 186.640625 240.335938 188.199219 C 243.898438 191.710938 245.964844 197.097656 245.964844 205.617188 Z M 330.066406 212.210938 C 329.921875 212.199219 329.8125 212.132812 329.738281 212.007812 C 322.007812 201.972656 307.820312 183.476562 304.742188 179.441406 C 301.488281 175.21875 298.9375 173.828125 295.574219 173.828125 C 294.472656 173.796875 293.40625 173.984375 292.382812 174.398438 C 291.359375 174.8125 290.464844 175.414062 289.695312 176.203125 C 288.878906 177.199219 288.269531 178.308594 287.867188 179.53125 C 287.46875 180.757812 287.304688 182.011719 287.375 183.296875 L 287.375 216.390625 C 287.273438 217.71875 287.441406 219.007812 287.878906 220.265625 C 288.320312 221.519531 288.992188 222.636719 289.898438 223.613281 C 290.875 224.539062 291.996094 225.242188 293.261719 225.714844 C 294.523438 226.191406 295.832031 226.398438 297.179688 226.34375 C 297.382812 226.347656 297.585938 226.339844 297.789062 226.320312 L 297.789062 188.386719 C 297.789062 188.113281 297.910156 187.960938 298.089844 187.960938 C 298.230469 187.960938 298.3125 188.019531 298.417969 188.179688 C 302.953125 194.054688 320.152344 216.488281 323.445312 220.707031 C 326.703125 224.925781 329.238281 226.34375 332.582031 226.34375 C 333.6875 226.382812 334.75 226.195312 335.777344 225.785156 C 336.800781 225.375 337.703125 224.773438 338.472656 223.984375 C 339.289062 222.988281 339.902344 221.878906 340.300781 220.65625 C 340.703125 219.433594 340.871094 218.179688 340.800781 216.894531 L 340.800781 183.796875 C 340.898438 182.464844 340.726562 181.171875 340.285156 179.910156 C 339.84375 178.652344 339.171875 177.527344 338.269531 176.546875 C 337.285156 175.621094 336.164062 174.921875 334.898438 174.449219 C 333.632812 173.980469 332.324219 173.773438 330.972656 173.828125 C 330.761719 173.828125 330.601562 173.828125 330.375 173.847656 L 330.375 211.804688 C 330.375 212.078125 330.242188 212.214844 330.070312 212.214844 Z M 160.617188 216.175781 C 160.191406 216.175781 159.945312 216.03125 159.945312 215.75 C 159.988281 215.519531 160.109375 215.339844 160.3125 215.21875 C 163.621094 212.546875 185.507812 194.941406 188.847656 192.203125 C 194.648438 187.546875 195.867188 185.269531 195.867188 181.957031 C 195.863281 180.945312 195.652344 179.980469 195.226562 179.0625 C 194.804688 178.144531 194.207031 177.355469 193.441406 176.691406 C 191.683594 175.207031 189.054688 174.402344 184.808594 174.402344 L 147.527344 174.402344 L 147.527344 174.996094 C 147.457031 176.929688 147.914062 178.730469 148.898438 180.398438 C 150.40625 182.550781 153.25 183.796875 157.089844 183.796875 L 181.570312 183.796875 C 182.003906 183.796875 182.242188 183.925781 182.242188 184.148438 C 182.242188 184.335938 182.132812 184.464844 181.859375 184.667969 C 178.398438 187.46875 158.191406 203.726562 153.15625 207.738281 C 147.339844 212.394531 146.183594 214.71875 146.183594 218.015625 C 146.1875 219.023438 146.402344 219.984375 146.828125 220.902344 C 147.253906 221.816406 147.847656 222.601562 148.617188 223.257812 C 150.375 224.753906 153 225.570312 157.265625 225.570312 L 196.261719 225.570312 L 196.261719 225.199219 C 196.339844 223.972656 196.167969 222.78125 195.746094 221.625 C 195.320312 220.46875 194.675781 219.449219 193.820312 218.5625 C 191.917969 216.8125 189.453125 216.171875 184.835938 216.171875 Z M 160.617188 216.175781 " clip-rule="nonzero"/></clipPath><linearGradient x1="0.338059" gradientTransform="matrix(194.644115, 0, 0, 69.60787, 146.182771, 156.957516)" y1="1.107654" x2="0.649452" gradientUnits="userSpaceOnUse" y2="0.129802" id="24ead31c7c"><stop stop-opacity="1" stop-color="rgb(66.116333%, 66.116333%, 66.116333%)" offset="0"/><stop stop-opacity="1" stop-color="rgb(66.009521%, 66.009521%, 66.009521%)" offset="0.0078125"/><stop stop-opacity="1" stop-color="rgb(65.795898%, 65.795898%, 65.795898%)" offset="0.015625"/><stop stop-opacity="1" stop-color="rgb(65.582275%, 65.582275%, 65.582275%)" offset="0.0234375"/><stop stop-opacity="1" stop-color="rgb(65.368652%, 65.368652%, 65.368652%)" offset="0.03125"/><stop stop-opacity="1" stop-color="rgb(65.179443%, 65.179443%, 65.179443%)" offset="0.0625"/><stop stop-opacity="1" stop-color="rgb(65.098572%, 65.098572%, 65.098572%)" offset="0.0715248"/><stop stop-opacity="1" stop-color="rgb(65.098572%, 65.098572%, 65.098572%)" offset="0.125"/><stop stop-opacity="1" stop-color="rgb(65.098572%, 65.098572%, 65.098572%)" offset="0.25"/><stop stop-opacity="1" stop-color="rgb(65.098572%, 65.098572%, 65.098572%)" offset="0.375"/><stop stop-opacity="1" stop-color="rgb(65.159607%, 65.159607%, 65.159607%)" offset="0.4375"/><stop stop-opacity="1" stop-color="rgb(65.330505%, 65.330505%, 65.330505%)" offset="0.453125"/><stop stop-opacity="1" stop-color="rgb(65.54718%, 65.54718%, 65.54718%)" offset="0.46875"/><stop stop-opacity="1" stop-color="rgb(65.762329%, 65.762329%, 65.762329%)" offset="0.484375"/><stop stop-opacity="1" stop-color="rgb(65.979004%, 65.979004%, 65.979004%)" offset="0.5"/><stop stop-opacity="1" stop-color="rgb(66.195679%, 66.195679%, 66.195679%)" offset="0.515625"/><stop stop-opacity="1" stop-color="rgb(66.412354%, 66.412354%, 66.412354%)" offset="0.53125"/><stop stop-opacity="1" stop-color="rgb(66.627502%, 66.627502%, 66.627502%)" offset="0.546875"/><stop stop-opacity="1" stop-color="rgb(66.844177%, 66.844177%, 66.844177%)" offset="0.5625"/><stop stop-opacity="1" stop-color="rgb(67.060852%, 67.060852%, 67.060852%)" offset="0.578125"/><stop stop-opacity="1" stop-color="rgb(67.277527%, 67.277527%, 67.277527%)" offset="0.59375"/><stop stop-opacity="1" stop-color="rgb(67.492676%, 67.492676%, 67.492676%)" offset="0.609375"/><stop stop-opacity="1" stop-color="rgb(67.709351%, 67.709351%, 67.709351%)" offset="0.625"/><stop stop-opacity="1" stop-color="rgb(67.926025%, 67.926025%, 67.926025%)" offset="0.640625"/><stop stop-opacity="1" stop-color="rgb(68.141174%, 68.141174%, 68.141174%)" offset="0.65625"/><stop stop-opacity="1" stop-color="rgb(68.357849%, 68.357849%, 68.357849%)" offset="0.671875"/><stop stop-opacity="1" stop-color="rgb(68.574524%, 68.574524%, 68.574524%)" offset="0.6875"/><stop stop-opacity="1" stop-color="rgb(68.791199%, 68.791199%, 68.791199%)" offset="0.703125"/><stop stop-opacity="1" stop-color="rgb(69.006348%, 69.006348%, 69.006348%)" offset="0.71875"/><stop stop-opacity="1" stop-color="rgb(69.223022%, 69.223022%, 69.223022%)" offset="0.734375"/><stop stop-opacity="1" stop-color="rgb(69.439697%, 69.439697%, 69.439697%)" offset="0.75"/><stop stop-opacity="1" stop-color="rgb(69.656372%, 69.656372%, 69.656372%)" offset="0.765625"/><stop stop-opacity="1" stop-color="rgb(69.871521%, 69.871521%, 69.871521%)" offset="0.78125"/><stop stop-opacity="1" stop-color="rgb(70.088196%, 70.088196%, 70.088196%)" offset="0.796875"/><stop stop-opacity="1" stop-color="rgb(70.336914%, 70.336914%, 70.336914%)" offset="0.804687"/><stop stop-opacity="1" stop-color="rgb(70.620728%, 70.620728%, 70.620728%)" offset="0.8125"/><stop stop-opacity="1" stop-color="rgb(70.906067%, 70.906067%, 70.906067%)" offset="0.820312"/><stop stop-opacity="1" stop-color="rgb(71.191406%, 71.191406%, 71.191406%)" offset="0.828125"/><stop stop-opacity="1" stop-color="rgb(71.476746%, 71.476746%, 71.476746%)" offset="0.835937"/><stop stop-opacity="1" stop-color="rgb(71.763611%, 71.763611%, 71.763611%)" offset="0.84375"/><stop stop-opacity="1" stop-color="rgb(72.04895%, 72.04895%, 72.04895%)" offset="0.851563"/><stop stop-opacity="1" stop-color="rgb(72.33429%, 72.33429%, 72.33429%)" offset="0.859375"/><stop stop-opacity="1" stop-color="rgb(72.619629%, 72.619629%, 72.619629%)" offset="0.867188"/><stop stop-opacity="1" stop-color="rgb(72.906494%, 72.906494%, 72.906494%)" offset="0.875"/><stop stop-opacity="1" stop-color="rgb(73.191833%, 73.191833%, 73.191833%)" offset="0.882813"/><stop stop-opacity="1" stop-color="rgb(73.477173%, 73.477173%, 73.477173%)" offset="0.890625"/><stop stop-opacity="1" stop-color="rgb(73.762512%, 73.762512%, 73.762512%)" offset="0.898438"/><stop stop-opacity="1" stop-color="rgb(74.047852%, 74.047852%, 74.047852%)" offset="0.90625"/><stop stop-opacity="1" stop-color="rgb(74.334717%, 74.334717%, 74.334717%)" offset="0.914062"/><stop stop-opacity="1" stop-color="rgb(74.620056%, 74.620056%, 74.620056%)" offset="0.921875"/><stop stop-opacity="1" stop-color="rgb(74.905396%, 74.905396%, 74.905396%)" offset="0.928475"/><stop stop-opacity="1" stop-color="rgb(75.048828%, 75.048828%, 75.048828%)" offset="0.929687"/><stop stop-opacity="1" stop-color="rgb(75.190735%, 75.190735%, 75.190735%)" offset="0.9375"/><stop stop-opacity="1" stop-color="rgb(75.4776%, 75.4776%, 75.4776%)" offset="0.945313"/><stop stop-opacity="1" stop-color="rgb(75.762939%, 75.762939%, 75.762939%)" offset="0.953125"/><stop stop-opacity="1" stop-color="rgb(76.048279%, 76.048279%, 76.048279%)" offset="0.960938"/><stop stop-opacity="1" stop-color="rgb(76.333618%, 76.333618%, 76.333618%)" offset="0.96875"/><stop stop-opacity="1" stop-color="rgb(76.620483%, 76.620483%, 76.620483%)" offset="0.976563"/><stop stop-opacity="1" stop-color="rgb(76.905823%, 76.905823%, 76.905823%)" offset="0.984375"/><stop stop-opacity="1" stop-color="rgb(77.191162%, 77.191162%, 77.191162%)" offset="0.992188"/><stop stop-opacity="1" stop-color="rgb(77.476501%, 77.476501%, 77.476501%)" offset="1"/></linearGradient><clipPath id="c797a5920c"><path d="M 62 161 L 138 161 L 138 231.207031 L 62 231.207031 Z M 62 161 " clip-rule="nonzero"/></clipPath><clipPath id="cad2926004"><path d="M 121.734375 184.640625 C 121.734375 178.449219 116.957031 173.761719 110.140625 174.285156 C 95.679688 175.390625 93.8125 191.796875 103.226562 192.847656 C 113.070312 193.9375 116.59375 183.554688 116.789062 182.976562 L 116.796875 182.976562 C 116.820312 183.683594 117.347656 197.964844 102.738281 197.964844 C 101.976562 197.976562 101.222656 197.910156 100.476562 197.765625 C 99.726562 197.625 99 197.410156 98.296875 197.125 C 97.59375 196.835938 96.925781 196.480469 96.292969 196.0625 C 95.660156 195.640625 95.074219 195.160156 94.539062 194.621094 C 94 194.082031 93.523438 193.496094 93.105469 192.863281 C 92.6875 192.226562 92.335938 191.558594 92.054688 190.855469 C 91.769531 190.148438 91.5625 189.425781 91.425781 188.675781 C 91.289062 187.929688 91.226562 187.179688 91.242188 186.417969 C 91.242188 178.472656 98.992188 170.574219 109.929688 170.148438 C 116.054688 169.914062 120.089844 171.355469 123.25 174.507812 C 129.691406 180.929688 127.839844 192.980469 122.625 198.929688 C 114.347656 208.371094 102.710938 210.769531 91.871094 205.925781 C 81.027344 201.078125 77.144531 187.042969 83.714844 175.300781 C 86.128906 170.980469 94.90625 161.355469 109.988281 161.355469 C 129.136719 161.355469 138.84375 174.890625 137.089844 190.789062 C 135.746094 202.972656 128.324219 211.796875 124.886719 215.515625 C 109.773438 231.898438 87.5625 235.164062 73.566406 226.644531 C 72.609375 226.070312 71.699219 225.433594 70.832031 224.734375 C 69.964844 224.03125 69.15625 223.269531 68.398438 222.453125 C 67.640625 221.632812 66.949219 220.765625 66.316406 219.847656 C 65.683594 218.929688 65.121094 217.972656 64.628906 216.976562 C 64.136719 215.976562 63.714844 214.949219 63.371094 213.890625 C 63.027344 212.832031 62.757812 211.753906 62.566406 210.65625 C 62.378906 209.5625 62.265625 208.457031 62.234375 207.34375 C 62.203125 206.230469 62.253906 205.121094 62.382812 204.015625 C 62.558594 205.6875 62.917969 207.320312 63.449219 208.914062 C 63.984375 210.511719 64.683594 212.027344 65.546875 213.472656 C 66.414062 214.914062 67.421875 216.25 68.578125 217.472656 C 69.730469 218.699219 71.003906 219.785156 72.394531 220.734375 C 83.835938 228.515625 102.964844 229.585938 116.785156 214.421875 C 102.890625 224.773438 86.652344 224.617188 75.566406 217.414062 C 65.390625 210.804688 62.59375 197.605469 67.578125 184.5625 C 65.078125 196.199219 69.09375 206.980469 77.917969 212.601562 C 91.667969 221.363281 111.707031 216.324219 124.332031 202.21875 C 126.457031 199.851562 128.097656 197.183594 129.25 194.21875 C 130.402344 191.253906 130.992188 188.183594 131.023438 185.003906 C 130.886719 175.140625 123.992188 166.28125 110.074219 166.28125 C 95.78125 166.28125 85.960938 177.296875 85.960938 186.464844 C 85.960938 196.644531 92.964844 202.449219 102.101562 202.449219 C 111.144531 202.460938 121.734375 196.773438 121.734375 184.640625 Z M 121.734375 184.640625 " clip-rule="nonzero"/></clipPath><linearGradient x1="-0.000294146" gradientTransform="matrix(75.067175, 0, 0, 69.844885, 62.226306, 161.356536)" y1="0.5" x2="1.020668" gradientUnits="userSpaceOnUse" y2="0.5" id="d619d98c48"><stop stop-opacity="1" stop-color="rgb(65.098572%, 65.098572%, 65.098572%)" offset="0"/><stop stop-opacity="1" stop-color="rgb(65.446472%, 65.446472%, 65.446472%)" offset="0.00390625"/><stop stop-opacity="1" stop-color="rgb(65.795898%, 65.795898%, 65.795898%)" offset="0.0078125"/><stop stop-opacity="1" stop-color="rgb(66.157532%, 66.157532%, 66.157532%)" offset="0.0117188"/><stop stop-opacity="1" stop-color="rgb(66.519165%, 66.519165%, 66.519165%)" offset="0.015625"/><stop stop-opacity="1" stop-color="rgb(66.880798%, 66.880798%, 66.880798%)" offset="0.0195312"/><stop stop-opacity="1" stop-color="rgb(67.242432%, 67.242432%, 67.242432%)" offset="0.0234375"/><stop stop-opacity="1" stop-color="rgb(67.604065%, 67.604065%, 67.604065%)" offset="0.0273438"/><stop stop-opacity="1" stop-color="rgb(67.965698%, 67.965698%, 67.965698%)" offset="0.03125"/><stop stop-opacity="1" stop-color="rgb(68.327332%, 68.327332%, 68.327332%)" offset="0.0351562"/><stop stop-opacity="1" stop-color="rgb(68.688965%, 68.688965%, 68.688965%)" offset="0.0390625"/><stop stop-opacity="1" stop-color="rgb(69.050598%, 69.050598%, 69.050598%)" offset="0.0429687"/><stop stop-opacity="1" stop-color="rgb(69.413757%, 69.413757%, 69.413757%)" offset="0.046875"/><stop stop-opacity="1" stop-color="rgb(69.775391%, 69.775391%, 69.775391%)" offset="0.0507813"/><stop stop-opacity="1" stop-color="rgb(70.137024%, 70.137024%, 70.137024%)" offset="0.0546875"/><stop stop-opacity="1" stop-color="rgb(70.498657%, 70.498657%, 70.498657%)" offset="0.0585938"/><stop stop-opacity="1" stop-color="rgb(70.860291%, 70.860291%, 70.860291%)" offset="0.0625"/><stop stop-opacity="1" stop-color="rgb(71.221924%, 71.221924%, 71.221924%)" offset="0.0664062"/><stop stop-opacity="1" stop-color="rgb(71.583557%, 71.583557%, 71.583557%)" offset="0.0703125"/><stop stop-opacity="1" stop-color="rgb(71.94519%, 71.94519%, 71.94519%)" offset="0.0742188"/><stop stop-opacity="1" stop-color="rgb(72.306824%, 72.306824%, 72.306824%)" offset="0.078125"/><stop stop-opacity="1" stop-color="rgb(72.659302%, 72.659302%, 72.659302%)" offset="0.0820312"/><stop stop-opacity="1" stop-color="rgb(73.013306%, 73.013306%, 73.013306%)" offset="0.0859375"/><stop stop-opacity="1" stop-color="rgb(73.326111%, 73.326111%, 73.326111%)" offset="0.0898437"/><stop stop-opacity="1" stop-color="rgb(73.638916%, 73.638916%, 73.638916%)" offset="0.09375"/><stop stop-opacity="1" stop-color="rgb(73.951721%, 73.951721%, 73.951721%)" offset="0.0976563"/><stop stop-opacity="1" stop-color="rgb(74.264526%, 74.264526%, 74.264526%)" offset="0.101563"/><stop stop-opacity="1" stop-color="rgb(74.577332%, 74.577332%, 74.577332%)" offset="0.105469"/><stop stop-opacity="1" stop-color="rgb(74.891663%, 74.891663%, 74.891663%)" offset="0.109375"/><stop stop-opacity="1" stop-color="rgb(75.204468%, 75.204468%, 75.204468%)" offset="0.113281"/><stop stop-opacity="1" stop-color="rgb(75.517273%, 75.517273%, 75.517273%)" offset="0.117188"/><stop stop-opacity="1" stop-color="rgb(75.830078%, 75.830078%, 75.830078%)" offset="0.121094"/><stop stop-opacity="1" stop-color="rgb(76.144409%, 76.144409%, 76.144409%)" offset="0.125"/><stop stop-opacity="1" stop-color="rgb(76.457214%, 76.457214%, 76.457214%)" offset="0.128906"/><stop stop-opacity="1" stop-color="rgb(76.77002%, 76.77002%, 76.77002%)" offset="0.132812"/><stop stop-opacity="1" stop-color="rgb(77.082825%, 77.082825%, 77.082825%)" offset="0.136719"/><stop stop-opacity="1" stop-color="rgb(77.397156%, 77.397156%, 77.397156%)" offset="0.140625"/><stop stop-opacity="1" stop-color="rgb(77.709961%, 77.709961%, 77.709961%)" offset="0.144531"/><stop stop-opacity="1" stop-color="rgb(78.022766%, 78.022766%, 78.022766%)" offset="0.148438"/><stop stop-opacity="1" stop-color="rgb(78.335571%, 78.335571%, 78.335571%)" offset="0.152344"/><stop stop-opacity="1" stop-color="rgb(78.649902%, 78.649902%, 78.649902%)" offset="0.15625"/><stop stop-opacity="1" stop-color="rgb(78.962708%, 78.962708%, 78.962708%)" offset="0.160156"/><stop stop-opacity="1" stop-color="rgb(79.275513%, 79.275513%, 79.275513%)" offset="0.164062"/><stop stop-opacity="1" stop-color="rgb(79.588318%, 79.588318%, 79.588318%)" offset="0.167969"/><stop stop-opacity="1" stop-color="rgb(79.901123%, 79.901123%, 79.901123%)" offset="0.171875"/><stop stop-opacity="1" stop-color="rgb(80.213928%, 80.213928%, 80.213928%)" offset="0.175781"/><stop stop-opacity="1" stop-color="rgb(80.528259%, 80.528259%, 80.528259%)" offset="0.179687"/><stop stop-opacity="1" stop-color="rgb(80.841064%, 80.841064%, 80.841064%)" offset="0.183594"/><stop stop-opacity="1" stop-color="rgb(81.15387%, 81.15387%, 81.15387%)" offset="0.1875"/><stop stop-opacity="1" stop-color="rgb(81.466675%, 81.466675%, 81.466675%)" offset="0.191406"/><stop stop-opacity="1" stop-color="rgb(81.781006%, 81.781006%, 81.781006%)" offset="0.195313"/><stop stop-opacity="1" stop-color="rgb(82.093811%, 82.093811%, 82.093811%)" offset="0.199219"/><stop stop-opacity="1" stop-color="rgb(82.406616%, 82.406616%, 82.406616%)" offset="0.203125"/><stop stop-opacity="1" stop-color="rgb(82.719421%, 82.719421%, 82.719421%)" offset="0.207031"/><stop stop-opacity="1" stop-color="rgb(83.033752%, 83.033752%, 83.033752%)" offset="0.210938"/><stop stop-opacity="1" stop-color="rgb(83.319092%, 83.319092%, 83.319092%)" offset="0.214844"/><stop stop-opacity="1" stop-color="rgb(83.605957%, 83.605957%, 83.605957%)" offset="0.21875"/><stop stop-opacity="1" stop-color="rgb(83.813477%, 83.813477%, 83.813477%)" offset="0.222656"/><stop stop-opacity="1" stop-color="rgb(84.020996%, 84.020996%, 84.020996%)" offset="0.226562"/><stop stop-opacity="1" stop-color="rgb(84.228516%, 84.228516%, 84.228516%)" offset="0.230469"/><stop stop-opacity="1" stop-color="rgb(84.436035%, 84.436035%, 84.436035%)" offset="0.234375"/><stop stop-opacity="1" stop-color="rgb(84.643555%, 84.643555%, 84.643555%)" offset="0.238281"/><stop stop-opacity="1" stop-color="rgb(84.851074%, 84.851074%, 84.851074%)" offset="0.242188"/><stop stop-opacity="1" stop-color="rgb(85.058594%, 85.058594%, 85.058594%)" offset="0.246094"/><stop stop-opacity="1" stop-color="rgb(85.266113%, 85.266113%, 85.266113%)" offset="0.25"/><stop stop-opacity="1" stop-color="rgb(85.473633%, 85.473633%, 85.473633%)" offset="0.253906"/><stop stop-opacity="1" stop-color="rgb(85.682678%, 85.682678%, 85.682678%)" offset="0.257812"/><stop stop-opacity="1" stop-color="rgb(85.890198%, 85.890198%, 85.890198%)" offset="0.261719"/><stop stop-opacity="1" stop-color="rgb(86.097717%, 86.097717%, 86.097717%)" offset="0.265625"/><stop stop-opacity="1" stop-color="rgb(86.305237%, 86.305237%, 86.305237%)" offset="0.269531"/><stop stop-opacity="1" stop-color="rgb(86.512756%, 86.512756%, 86.512756%)" offset="0.273438"/><stop stop-opacity="1" stop-color="rgb(86.720276%, 86.720276%, 86.720276%)" offset="0.277344"/><stop stop-opacity="1" stop-color="rgb(86.927795%, 86.927795%, 86.927795%)" offset="0.28125"/><stop stop-opacity="1" stop-color="rgb(87.135315%, 87.135315%, 87.135315%)" offset="0.285156"/><stop stop-opacity="1" stop-color="rgb(87.342834%, 87.342834%, 87.342834%)" offset="0.289062"/><stop stop-opacity="1" stop-color="rgb(87.550354%, 87.550354%, 87.550354%)" offset="0.292969"/><stop stop-opacity="1" stop-color="rgb(87.757874%, 87.757874%, 87.757874%)" offset="0.296875"/><stop stop-opacity="1" stop-color="rgb(87.965393%, 87.965393%, 87.965393%)" offset="0.300781"/><stop stop-opacity="1" stop-color="rgb(88.174438%, 88.174438%, 88.174438%)" offset="0.304688"/><stop stop-opacity="1" stop-color="rgb(88.381958%, 88.381958%, 88.381958%)" offset="0.308594"/><stop stop-opacity="1" stop-color="rgb(88.589478%, 88.589478%, 88.589478%)" offset="0.3125"/><stop stop-opacity="1" stop-color="rgb(88.796997%, 88.796997%, 88.796997%)" offset="0.316406"/><stop stop-opacity="1" stop-color="rgb(89.004517%, 89.004517%, 89.004517%)" offset="0.320312"/><stop stop-opacity="1" stop-color="rgb(89.212036%, 89.212036%, 89.212036%)" offset="0.324219"/><stop stop-opacity="1" stop-color="rgb(89.419556%, 89.419556%, 89.419556%)" offset="0.328125"/><stop stop-opacity="1" stop-color="rgb(89.61792%, 89.61792%, 89.61792%)" offset="0.332031"/><stop stop-opacity="1" stop-color="rgb(89.816284%, 89.816284%, 89.816284%)" offset="0.335937"/><stop stop-opacity="1" stop-color="rgb(89.918518%, 89.918518%, 89.918518%)" offset="0.34375"/><stop stop-opacity="1" stop-color="rgb(90.124512%, 90.124512%, 90.124512%)" offset="0.351562"/><stop stop-opacity="1" stop-color="rgb(90.330505%, 90.330505%, 90.330505%)" offset="0.359375"/><stop stop-opacity="1" stop-color="rgb(90.536499%, 90.536499%, 90.536499%)" offset="0.367188"/><stop stop-opacity="1" stop-color="rgb(90.742493%, 90.742493%, 90.742493%)" offset="0.375"/><stop stop-opacity="1" stop-color="rgb(90.948486%, 90.948486%, 90.948486%)" offset="0.382812"/><stop stop-opacity="1" stop-color="rgb(91.15448%, 91.15448%, 91.15448%)" offset="0.390625"/><stop stop-opacity="1" stop-color="rgb(91.360474%, 91.360474%, 91.360474%)" offset="0.398438"/><stop stop-opacity="1" stop-color="rgb(91.566467%, 91.566467%, 91.566467%)" offset="0.40625"/><stop stop-opacity="1" stop-color="rgb(91.772461%, 91.772461%, 91.772461%)" offset="0.414063"/><stop stop-opacity="1" stop-color="rgb(91.976929%, 91.976929%, 91.976929%)" offset="0.421875"/><stop stop-opacity="1" stop-color="rgb(91.993713%, 91.993713%, 91.993713%)" offset="0.429688"/><stop stop-opacity="1" stop-color="rgb(91.563416%, 91.563416%, 91.563416%)" offset="0.433594"/><stop stop-opacity="1" stop-color="rgb(91.221619%, 91.221619%, 91.221619%)" offset="0.4375"/><stop stop-opacity="1" stop-color="rgb(90.878296%, 90.878296%, 90.878296%)" offset="0.441406"/><stop stop-opacity="1" stop-color="rgb(90.534973%, 90.534973%, 90.534973%)" offset="0.445312"/><stop stop-opacity="1" stop-color="rgb(90.19165%, 90.19165%, 90.19165%)" offset="0.449219"/><stop stop-opacity="1" stop-color="rgb(89.849854%, 89.849854%, 89.849854%)" offset="0.453125"/><stop stop-opacity="1" stop-color="rgb(89.506531%, 89.506531%, 89.506531%)" offset="0.457031"/><stop stop-opacity="1" stop-color="rgb(89.164734%, 89.164734%, 89.164734%)" offset="0.460938"/><stop stop-opacity="1" stop-color="rgb(88.821411%, 88.821411%, 88.821411%)" offset="0.464844"/><stop stop-opacity="1" stop-color="rgb(88.478088%, 88.478088%, 88.478088%)" offset="0.46875"/><stop stop-opacity="1" stop-color="rgb(88.134766%, 88.134766%, 88.134766%)" offset="0.472656"/><stop stop-opacity="1" stop-color="rgb(87.792969%, 87.792969%, 87.792969%)" offset="0.476562"/><stop stop-opacity="1" stop-color="rgb(87.449646%, 87.449646%, 87.449646%)" offset="0.480469"/><stop stop-opacity="1" stop-color="rgb(87.107849%, 87.107849%, 87.107849%)" offset="0.484375"/><stop stop-opacity="1" stop-color="rgb(86.764526%, 86.764526%, 86.764526%)" offset="0.488281"/><stop stop-opacity="1" stop-color="rgb(86.421204%, 86.421204%, 86.421204%)" offset="0.492188"/><stop stop-opacity="1" stop-color="rgb(86.077881%, 86.077881%, 86.077881%)" offset="0.496094"/><stop stop-opacity="1" stop-color="rgb(85.736084%, 85.736084%, 85.736084%)" offset="0.5"/><stop stop-opacity="1" stop-color="rgb(85.392761%, 85.392761%, 85.392761%)" offset="0.503906"/><stop stop-opacity="1" stop-color="rgb(85.049438%, 85.049438%, 85.049438%)" offset="0.507812"/><stop stop-opacity="1" stop-color="rgb(84.706116%, 84.706116%, 84.706116%)" offset="0.511719"/><stop stop-opacity="1" stop-color="rgb(84.364319%, 84.364319%, 84.364319%)" offset="0.515625"/><stop stop-opacity="1" stop-color="rgb(84.020996%, 84.020996%, 84.020996%)" offset="0.519531"/><stop stop-opacity="1" stop-color="rgb(83.679199%, 83.679199%, 83.679199%)" offset="0.523438"/><stop stop-opacity="1" stop-color="rgb(83.335876%, 83.335876%, 83.335876%)" offset="0.527344"/><stop stop-opacity="1" stop-color="rgb(82.992554%, 82.992554%, 82.992554%)" offset="0.53125"/><stop stop-opacity="1" stop-color="rgb(82.65686%, 82.65686%, 82.65686%)" offset="0.535156"/><stop stop-opacity="1" stop-color="rgb(82.321167%, 82.321167%, 82.321167%)" offset="0.539062"/><stop stop-opacity="1" stop-color="rgb(82.028198%, 82.028198%, 82.028198%)" offset="0.542969"/><stop stop-opacity="1" stop-color="rgb(81.736755%, 81.736755%, 81.736755%)" offset="0.546875"/><stop stop-opacity="1" stop-color="rgb(81.443787%, 81.443787%, 81.443787%)" offset="0.550781"/><stop stop-opacity="1" stop-color="rgb(81.152344%, 81.152344%, 81.152344%)" offset="0.554688"/><stop stop-opacity="1" stop-color="rgb(80.859375%, 80.859375%, 80.859375%)" offset="0.558594"/><stop stop-opacity="1" stop-color="rgb(80.567932%, 80.567932%, 80.567932%)" offset="0.5625"/><stop stop-opacity="1" stop-color="rgb(80.274963%, 80.274963%, 80.274963%)" offset="0.566406"/><stop stop-opacity="1" stop-color="rgb(79.983521%, 79.983521%, 79.983521%)" offset="0.570312"/><stop stop-opacity="1" stop-color="rgb(79.690552%, 79.690552%, 79.690552%)" offset="0.574219"/><stop stop-opacity="1" stop-color="rgb(79.399109%, 79.399109%, 79.399109%)" offset="0.578125"/><stop stop-opacity="1" stop-color="rgb(79.10614%, 79.10614%, 79.10614%)" offset="0.582031"/><stop stop-opacity="1" stop-color="rgb(78.814697%, 78.814697%, 78.814697%)" offset="0.585938"/><stop stop-opacity="1" stop-color="rgb(78.521729%, 78.521729%, 78.521729%)" offset="0.589844"/><stop stop-opacity="1" stop-color="rgb(78.230286%, 78.230286%, 78.230286%)" offset="0.59375"/><stop stop-opacity="1" stop-color="rgb(77.937317%, 77.937317%, 77.937317%)" offset="0.597656"/><stop stop-opacity="1" stop-color="rgb(77.645874%, 77.645874%, 77.645874%)" offset="0.601562"/><stop stop-opacity="1" stop-color="rgb(77.352905%, 77.352905%, 77.352905%)" offset="0.605469"/><stop stop-opacity="1" stop-color="rgb(77.061462%, 77.061462%, 77.061462%)" offset="0.609375"/><stop stop-opacity="1" stop-color="rgb(76.77002%, 76.77002%, 76.77002%)" offset="0.613281"/><stop stop-opacity="1" stop-color="rgb(76.478577%, 76.478577%, 76.478577%)" offset="0.617188"/><stop stop-opacity="1" stop-color="rgb(76.185608%, 76.185608%, 76.185608%)" offset="0.621094"/><stop stop-opacity="1" stop-color="rgb(75.894165%, 75.894165%, 75.894165%)" offset="0.625"/><stop stop-opacity="1" stop-color="rgb(75.601196%, 75.601196%, 75.601196%)" offset="0.628906"/><stop stop-opacity="1" stop-color="rgb(75.309753%, 75.309753%, 75.309753%)" offset="0.632812"/><stop stop-opacity="1" stop-color="rgb(75.016785%, 75.016785%, 75.016785%)" offset="0.636719"/><stop stop-opacity="1" stop-color="rgb(74.725342%, 74.725342%, 74.725342%)" offset="0.640625"/><stop stop-opacity="1" stop-color="rgb(74.432373%, 74.432373%, 74.432373%)" offset="0.644531"/><stop stop-opacity="1" stop-color="rgb(74.14093%, 74.14093%, 74.14093%)" offset="0.648438"/><stop stop-opacity="1" stop-color="rgb(73.847961%, 73.847961%, 73.847961%)" offset="0.652344"/><stop stop-opacity="1" stop-color="rgb(73.556519%, 73.556519%, 73.556519%)" offset="0.65625"/><stop stop-opacity="1" stop-color="rgb(73.26355%, 73.26355%, 73.26355%)" offset="0.660156"/><stop stop-opacity="1" stop-color="rgb(72.972107%, 72.972107%, 72.972107%)" offset="0.664062"/><stop stop-opacity="1" stop-color="rgb(72.679138%, 72.679138%, 72.679138%)" offset="0.667969"/><stop stop-opacity="1" stop-color="rgb(72.387695%, 72.387695%, 72.387695%)" offset="0.671875"/><stop stop-opacity="1" stop-color="rgb(72.094727%, 72.094727%, 72.094727%)" offset="0.675781"/><stop stop-opacity="1" stop-color="rgb(71.803284%, 71.803284%, 71.803284%)" offset="0.679688"/><stop stop-opacity="1" stop-color="rgb(71.510315%, 71.510315%, 71.510315%)" offset="0.683594"/><stop stop-opacity="1" stop-color="rgb(71.218872%, 71.218872%, 71.218872%)" offset="0.6875"/><stop stop-opacity="1" stop-color="rgb(70.925903%, 70.925903%, 70.925903%)" offset="0.691406"/><stop stop-opacity="1" stop-color="rgb(70.63446%, 70.63446%, 70.63446%)" offset="0.695312"/><stop stop-opacity="1" stop-color="rgb(70.341492%, 70.341492%, 70.341492%)" offset="0.699219"/><stop stop-opacity="1" stop-color="rgb(70.050049%, 70.050049%, 70.050049%)" offset="0.703125"/><stop stop-opacity="1" stop-color="rgb(69.812012%, 69.812012%, 69.812012%)" offset="0.707031"/><stop stop-opacity="1" stop-color="rgb(69.573975%, 69.573975%, 69.573975%)" offset="0.710938"/><stop stop-opacity="1" stop-color="rgb(69.377136%, 69.377136%, 69.377136%)" offset="0.714844"/><stop stop-opacity="1" stop-color="rgb(69.180298%, 69.180298%, 69.180298%)" offset="0.71875"/><stop stop-opacity="1" stop-color="rgb(68.981934%, 68.981934%, 68.981934%)" offset="0.722656"/><stop stop-opacity="1" stop-color="rgb(68.785095%, 68.785095%, 68.785095%)" offset="0.726562"/><stop stop-opacity="1" stop-color="rgb(68.586731%, 68.586731%, 68.586731%)" offset="0.730469"/><stop stop-opacity="1" stop-color="rgb(68.389893%, 68.389893%, 68.389893%)" offset="0.734375"/><stop stop-opacity="1" stop-color="rgb(68.193054%, 68.193054%, 68.193054%)" offset="0.738281"/><stop stop-opacity="1" stop-color="rgb(67.996216%, 67.996216%, 67.996216%)" offset="0.742188"/><stop stop-opacity="1" stop-color="rgb(67.797852%, 67.797852%, 67.797852%)" offset="0.746094"/><stop stop-opacity="1" stop-color="rgb(67.601013%, 67.601013%, 67.601013%)" offset="0.75"/><stop stop-opacity="1" stop-color="rgb(67.404175%, 67.404175%, 67.404175%)" offset="0.753906"/><stop stop-opacity="1" stop-color="rgb(67.207336%, 67.207336%, 67.207336%)" offset="0.757812"/><stop stop-opacity="1" stop-color="rgb(67.008972%, 67.008972%, 67.008972%)" offset="0.761719"/><stop stop-opacity="1" stop-color="rgb(66.812134%, 66.812134%, 66.812134%)" offset="0.765625"/><stop stop-opacity="1" stop-color="rgb(66.61377%, 66.61377%, 66.61377%)" offset="0.769531"/><stop stop-opacity="1" stop-color="rgb(66.416931%, 66.416931%, 66.416931%)" offset="0.773438"/><stop stop-opacity="1" stop-color="rgb(66.220093%, 66.220093%, 66.220093%)" offset="0.777344"/><stop stop-opacity="1" stop-color="rgb(66.023254%, 66.023254%, 66.023254%)" offset="0.78125"/><stop stop-opacity="1" stop-color="rgb(65.82489%, 65.82489%, 65.82489%)" offset="0.785156"/><stop stop-opacity="1" stop-color="rgb(65.628052%, 65.628052%, 65.628052%)" offset="0.789062"/><stop stop-opacity="1" stop-color="rgb(65.429688%, 65.429688%, 65.429688%)" offset="0.792969"/><stop stop-opacity="1" stop-color="rgb(65.232849%, 65.232849%, 65.232849%)" offset="0.796875"/><stop stop-opacity="1" stop-color="rgb(65.16571%, 65.16571%, 65.16571%)" offset="0.8125"/><stop stop-opacity="1" stop-color="rgb(65.098572%, 65.098572%, 65.098572%)" offset="0.875"/><stop stop-opacity="1" stop-color="rgb(65.098572%, 65.098572%, 65.098572%)" offset="1"/></linearGradient></defs><g clip-path="url(#00934f261a)"><g clip-path="url(#d243c3e7a0)"><path fill="#2510b5" d="M 51.078125 137.894531 L 163.578125 137.894531 L 163.578125 250.394531 L 51.078125 250.394531 Z M 51.078125 137.894531 " fill-opacity="1" fill-rule="nonzero"/></g></g><g clip-path="url(#936af7f705)"><g clip-path="url(#80081ac9ea)"><path fill="url(#24ead31c7c)" d="M 146.183594 156.957031 L 146.183594 226.566406 L 193.269531 226.566406 L 193.269531 156.957031 Z M 146.183594 156.957031 " fill-rule="nonzero"/></g></g><g clip-path="url(#c797a5920c)"><g clip-path="url(#cad2926004)"><path fill="url(#d619d98c48)" d="M 62.203125 161.355469 L 62.203125 231.207031 L 138.84375 231.207031 L 138.84375 161.355469 Z M 62.203125 161.355469 " fill-rule="nonzero"/></g></g><g fill="#a6a6a6" fill-opacity="1"><g transform="translate(193.476481, 225.690996)"><g><path d="M 2.054688 0 L 21.402344 -54.007812 L 32.90625 -54.007812 L 52.214844 0 L 41.347656 0 L 36.9375 -12.511719 L 17.515625 -12.511719 L 12.996094 0 Z M 19.945312 -22.035156 L 34.324219 -22.035156 L 27.191406 -43.476562 Z M 19.945312 -22.035156 "/></g></g></g><g fill="#a6a6a6" fill-opacity="1"><g transform="translate(246.034236, 225.690996)"><g><path d="M 16.996094 0.671875 C 14.15625 0.671875 11.902344 0.335938 10.234375 -0.335938 C 8.566406 -1.007812 7.332031 -1.898438 6.535156 -3.007812 C 5.738281 -4.113281 5.230469 -5.347656 5.003906 -6.703125 C 4.78125 -8.0625 4.667969 -9.4375 4.667969 -10.832031 L 4.667969 -55.503906 L 15.351562 -55.503906 L 15.351562 -12.175781 C 15.351562 -10.757812 15.65625 -9.605469 16.265625 -8.722656 C 16.875 -7.835938 18.027344 -7.296875 19.722656 -7.097656 L 21.550781 -6.984375 L 21.550781 -0.261719 C 20.804688 -0.0117188 20.042969 0.207031 19.273438 0.390625 C 18.5 0.578125 17.742188 0.671875 16.996094 0.671875 Z M 16.996094 0.671875 "/></g></g></g><g fill="#a6a6a6" fill-opacity="1"><g transform="translate(265.495768, 225.690996)"><g><path d="M 41.496094 -54.007812 L 52.402344 -54.007812 L 52.402344 0 L 42.578125 0 L 16.917969 -37.164062 L 16.917969 0 L 6.050781 0 L 6.050781 -54.007812 L 16.84375 -54.007812 L 41.496094 -18.265625 Z M 41.496094 -54.007812 "/></g></g></g></svg>